<svg width="37" height="36" viewBox="0 0 37 36" fill="none" xmlns="http://www.w3.org/2000/svg">
<path d="M18.5 3.37C14.9383 3.37014 11.4927 4.63767 8.77999 6.94577C6.06724 9.25387 4.26429 12.4519 3.69374 15.9677C3.12319 19.4835 3.82227 23.0876 5.66589 26.1351C7.50951 29.1826 10.3774 31.4747 13.7563 32.6012C14.5063 32.7325 14.7876 32.2825 14.7876 31.8887C14.7876 31.5325 14.7688 30.3512 14.7688 29.095C11 29.7887 10.025 28.1763 9.72504 27.3325C9.39216 26.5119 8.86445 25.7847 8.18754 25.2137C7.66254 24.9325 6.91254 24.2387 8.16878 24.22C8.64846 24.2721 9.10852 24.439 9.50999 24.7066C9.91145 24.9743 10.2425 25.3347 10.475 25.7575C10.6802 26.126 10.9561 26.4505 11.2868 26.7122C11.6176 26.974 11.9968 27.1679 12.4026 27.2828C12.8084 27.3978 13.233 27.4316 13.6519 27.3822C14.0708 27.3328 14.4758 27.2012 14.8438 26.995C14.9087 26.2324 15.2486 25.5194 15.8 24.9888C12.4625 24.6138 8.97504 23.32 8.97504 17.5825C8.95396 16.0918 9.50407 14.6494 10.5125 13.5513C10.054 12.2556 10.1076 10.8337 10.6625 9.57629C10.6625 9.57629 11.9187 9.18253 14.7875 11.1138C17.242 10.4387 19.8331 10.4387 22.2875 11.1138C25.1563 9.16379 26.4125 9.57629 26.4125 9.57629C26.9675 10.8337 27.0212 12.2556 26.5625 13.5513C27.5741 14.6475 28.1246 16.0911 28.1 17.5825C28.1 23.3387 24.5938 24.6138 21.2563 24.9888C21.6143 25.3516 21.89 25.7872 22.0647 26.2661C22.2394 26.7449 22.309 27.2557 22.2688 27.7638C22.2688 29.7701 22.25 31.3825 22.25 31.8888C22.25 32.2826 22.5313 32.7513 23.2813 32.6013C26.6543 31.4656 29.5139 29.1681 31.3497 26.1191C33.1854 23.07 33.8779 19.4677 33.3034 15.9554C32.7289 12.443 30.9248 9.24905 28.2132 6.94376C25.5017 4.63847 22.0591 3.37185 18.5 3.37Z" fill="#A3ABB2"/>
</svg>
